:SAMPLES-PER-SECOND 30
:FRAME-RANGE 1-3358
:FULLY-SPECIFIED
:DEGREES
840
root  -12.9588 36.9998 -29.6225 179.641 22.1766 177.402
RightUpLeg  -24.0524 -6.01906 16.8723
RightLeg  25.0953 -18.2091 -9.27785
RightFoot  -9.69156 0.166912 -15.9841
RightToes  -5.8209e-011 0 -3.6325e-017
Spine  4.66352 -5.76979 -4.04683
Spine1  0.734233 -7.81724 8.29942
HEad  -20.4652 -52.085 19.0679
LeftShoulder1  2.03136 -2.7265 -26.4778
LeftArm  5.07055 -21.91 -38.4222
LeftForeArm  11.3882 -12.5636 -12.3624
LeftHand  0.100833 -2.12481 -1.38441
RightShoulder  4.73518 4.99473 48.8407
RightArm  42.7284 -5.08836 14.2683
RightForeArm  -19.7317 23.2109 6.12782
RightHand  0.163755 5.04697 1.51393
LeftUpLeg  12.9547 33.954 6.6637
LeftLeg  37.9032 -7.77623 -6.08212
LeftFoot  -12.0104 -0.0659388 -23.2255
LeftToes  -4.03819e-010 -8.71445e-011 8.52097e-011
841
root  -13.0169 36.5437 -30.8701 -179.855 24.2875 179.688
RightUpLeg  -24.5317 -1.97128 18.3177
RightLeg  32.0697 -19.9408 -13.1949
RightFoot  -13.0159 -0.309985 -15.1254
RightToes  -5.8209e-011 0 -3.6325e-017
Spine  5.35343 -6.08697 -1.80271
Spine1  1.40706 -7.92403 9.29867
HEad  -21.4934 -51.9892 20.242
LeftShoulder1  2.0053 -2.70971 -26.134
LeftArm  5.59705 -19.1672 -37.508
LeftForeArm  11.6498 -12.2477 -12.5961
LeftHand  0.144638 -2.43627 -1.9551
RightShoulder  5.31819 5.92904 49.4126
RightArm  37.0757 -3.57724 14.0609
RightForeArm  -16.5701 19.1984 9.11436
RightHand  0.155622 4.96461 1.44003
LeftUpLeg  4.73124 30.474 8.33086
LeftLeg  53.284 -6.86435 -9.32159
LeftFoot  2.31797 2.95687 -24.4702
LeftToes  -4.03819e-010 -8.71445e-011 8.52097e-011
842
root  -13.1141 36.168 -32.01 -178.683 25.7057 -178.104
RightUpLeg  -25.0737 -1.80263 19.8705
RightLeg  36.6684 -18.5398 -14.511
RightFoot  -16.3094 -0.694686 -13.4105
RightToes  -5.8209e-011 0 -3.6325e-017
Spine  5.72005 -6.59273 0.579544
Spine1  1.83539 -8.12916 10.413
HEad  -20.7598 -52.6293 20.4281
LeftShoulder1  1.99454 -2.62805 -26.3972
LeftArm  5.33299 -16.7318 -35.8909
LeftForeArm  12.7659 -10.4939 -13.6928
LeftHand  0.198961 -2.48276 -2.7427
RightShoulder  5.16206 5.55687 49.9318
RightArm  32.7053 -2.47779 14.1927
RightForeArm  -16.378 18.0303 10.1458
RightHand  0.138003 4.56913 1.31754
LeftUpLeg  -4.53274 25.1347 8.63581
LeftLeg  65.3708 -5.33371 -11.9239
LeftFoot  10.6452 3.62246 -18.839
LeftToes  -4.03819e-010 -8.71445e-011 8.52097e-011
843
root  -13.1254 36.272 -33.3255 -178.342 29.4584 -177.395
RightUpLeg  -22.7642 -0.033544 19.581
RightLeg  37.6277 -16.9144 -13.7969
RightFoot  -18.1614 -0.83296 -11.8742
RightToes  -5.8209e-011 0 -3.6325e-017
Spine  6.08523 -5.93809 2.1355
Spine1  1.52081 -7.04048 10.0191
HEad  -19.3433 -53.2694 20.2465
LeftShoulder1  1.89519 -2.26334 -26.7401
LeftArm  3.75669 -13.895 -33.8494
LeftForeArm  14.6853 -7.89256 -14.9351
LeftHand  0.232262 -2.35589 -3.29876
RightShoulder  4.97255 5.04392 50.9752
RightArm  33.1289 -2.23367 14.2566
RightForeArm  -19.9436 19.4228 9.01689
RightHand  0.139352 4.5903 1.32907
LeftUpLeg  -11.2415 21.7213 9.01689
LeftLeg  71.7821 -2.19579 -6.59602
LeftFoot  8.1083 2.53557 -15.0137
LeftToes  -4.03819e-010 -8.71445e-011 8.52097e-011
844
root  -13.0638 36.6052 -34.7207 -178.671 34.7894 -177.797
RightUpLeg  -19.1364 3.81425 18.1424
RightLeg  37.1079 -15.9734 -12.8653
RightFoot  -19.2911 -0.85132 -10.3449
RightToes  -5.8209e-011 0 -3.6325e-017
Spine  6.28647 -5.04067 3.05986
Spine1  1.15253 -5.65703 8.67929
HEad  -17.5034 -52.7247 19.3972
LeftShoulder1  1.72475 -1.72011 -26.8949
LeftArm  2.02254 -8.90706 -31.3934
LeftForeArm  14.3725 -6.57762 -15.4231
LeftHand  0.295798 -2.3249 -4.27258
RightShoulder  5.23337 5.37438 51.6343
RightArm  35.4936 -2.41292 14.8758
RightForeArm  -21.2253 21.0587 7.57912
RightHand  0.135544 4.76951 1.25243
LeftUpLeg  -15.6163 19.6777 9.50817
LeftLeg  72.7407 -0.400721 -0.498232
LeftFoot  6.71984 1.49544 -9.65076
LeftToes  -4.03819e-010 -8.71445e-011 8.52097e-011
